<?xml version="1.0" encoding="UTF-8"?>
<svg id="Layer_1" xmlns="http://www.w3.org/2000/svg" version="1.1" viewBox="0 0 64 64">
  <defs>
    <style>
      .st0 {
        fill: #fff;
      }

      .st1 {
        fill: none;
        stroke: #fff;
        stroke-linecap: round;
        stroke-linejoin: round;
        stroke-width: 3.1px;
      }
    </style>
  </defs>
  <path class="st1" d="M52.9,42l-6.5,6.1,6.5,6.1"/>
  <path class="st1" d="M11.1,14.5l6.5,6.1-6.5,6.1"/>
  <path class="st0" d="M40.6,26.9c-.8-1.3-1.8-2.4-3-3.1-1.2-.7-2.6-1.1-4-1.1s-2.7.3-3.8.9c-.6.3-1.1.7-1.5,1.1v-1.7h-4.5v19.9h4.8v-10.9c0-1.6.4-2.7,1.3-3.5.9-.8,1.9-1.2,3-1.2s2.4.5,3.1,1.4c.8,1,1.2,2.1,1.2,3.4v10.9h4.8v-11.3c0-1.9-.4-3.5-1.1-4.8h0Z"/>
  <path class="st0" d="M52.1,16.5h-4.7v4.2c0,.5-.4.8-.9.8s-.9-.4-.9-.8v-4.2h-4.7c-.5,0-.9-.4-.9-.8s.4-.8.9-.8h4.7v-4.2c0-.5.4-.8.9-.8s.9.4.9.8v4.2h4.7c.5,0,.9.4.9.8s-.4.8-.9.8Z"/>
</svg>
