<svg width="457" height="91" viewBox="0 0 457 91" fill="none" xmlns="http://www.w3.org/2000/svg">
<path d="M48.46 37.27H16.3C14.33 37.27 12.73 38.87 12.73 40.84C12.73 42.81 14.33 44.41 16.3 44.41H48.46C50.43 44.41 52.03 42.81 52.03 40.84C52.03 38.87 50.43 37.27 48.46 37.27Z" fill="white"/>
<path d="M7.96002 37.4C9.93002 37.4 11.53 39 11.53 40.97C11.53 42.94 9.93002 44.54 7.96002 44.54C5.99002 44.54 4.39001 42.94 4.39001 40.97C4.39001 39 5.99002 37.4 7.96002 37.4Z" fill="white"/>
<path d="M48.46 55.06H24.64C22.71 55.06 21.14 53.49 21.14 51.56C21.14 49.63 22.71 48.06 24.64 48.06H48.46C50.39 48.06 51.96 49.63 51.96 51.56C51.96 53.49 50.39 55.06 48.46 55.06Z" fill="white"/>
<path d="M40.55 65.21H16.73C14.8 65.21 13.23 63.64 13.23 61.71C13.23 59.78 14.8 58.21 16.73 58.21H40.55C42.48 58.21 44.05 59.78 44.05 61.71C44.05 63.64 42.48 65.21 40.55 65.21Z" fill="white"/>
<path d="M44.79 25.35H30.21C28.24 25.35 26.64 26.95 26.64 28.92C26.64 30.89 28.24 32.49 30.21 32.49H47.7C47.03 30.53 45.97 27.95 44.79 25.34V25.35Z" fill="white"/>
<path d="M65.95 25.35H54.2C58.07 27.94 61.97 30.56 64.83 32.5H65.95C67.92 32.5 69.52 30.9 69.52 28.93C69.52 26.96 67.92 25.36 65.95 25.36V25.35Z" fill="white"/>
<path d="M43.32 19.4C43.53 19.68 43.75 19.97 43.97 20.26C49.61 26.94 75.98 43.8 87.39 45.73C71.9 46.8 56.04 63.28 43.96 71.81C65.43 49.08 52.89 32.14 43.96 20.26C43.7 19.95 43.48 19.66 43.31 19.4H43.32Z" fill="white"/>
<path d="M345.3 67.53C342.1 67.53 339.05 67.01 336.14 65.96C333.23 64.91 330.72 63.36 328.62 61.31L332.06 55.08C334.3 56.89 336.5 58.23 338.64 59.09C340.84 59.95 342.94 60.38 344.94 60.38C346.8 60.38 348.28 60.05 349.38 59.38C350.53 58.71 351.1 57.71 351.1 56.37C351.1 55.46 350.79 54.77 350.17 54.29C349.55 53.77 348.64 53.31 347.45 52.93C346.3 52.55 344.9 52.12 343.23 51.64C340.46 50.73 338.15 49.85 336.29 48.99C334.43 48.13 333.02 47.06 332.07 45.77C331.16 44.43 330.71 42.74 330.71 40.69C330.71 38.21 331.33 36.09 332.57 34.32C333.86 32.51 335.62 31.1 337.87 30.1C340.16 29.1 342.83 28.6 345.89 28.6C348.56 28.6 351.09 29.03 353.48 29.89C355.87 30.7 358.04 32.04 359.99 33.9L356.12 39.98C354.21 38.5 352.4 37.43 350.68 36.76C348.96 36.04 347.22 35.69 345.45 35.69C344.45 35.69 343.49 35.81 342.59 36.05C341.73 36.29 341.01 36.69 340.44 37.27C339.92 37.79 339.65 38.56 339.65 39.56C339.65 40.47 339.89 41.18 340.37 41.71C340.89 42.19 341.66 42.62 342.66 43C343.71 43.38 344.97 43.81 346.45 44.29C349.46 45.15 351.99 46.03 354.04 46.94C356.14 47.85 357.71 48.97 358.76 50.3C359.81 51.59 360.34 53.38 360.34 55.67C360.34 59.39 358.98 62.3 356.26 64.4C353.54 66.5 349.89 67.55 345.31 67.55L345.3 67.53Z" fill="white"/>
<path d="M384.23 58.67L398.2 38.42C399.66 36.34 400.7 34.4 401.3 32.65C401.9 30.85 402.21 29 402.21 27.15C402.21 24 401.42 21.13 399.86 18.62C398.31 16.13 396.22 14.12 393.65 12.67C391.07 11.21 388.17 10.46 385.05 10.46C381.93 10.46 379.01 11.2 376.39 12.67C373.81 14.13 371.72 16.13 370.18 18.62C368.62 21.13 367.83 24.01 367.83 27.15C367.83 29.75 368.52 32.39 369.89 35L370.28 35.75H383.24L380.15 33.27C378.06 31.59 377.04 29.59 377.04 27.15C377.04 24.94 377.78 23.12 379.3 21.6C380.87 20.07 382.73 19.32 384.99 19.32C387.25 19.32 389.11 20.07 390.68 21.6C392.24 23.13 393 24.94 393 27.15C393 27.94 392.83 28.82 392.47 29.82C392.15 30.81 391.53 32.01 390.61 33.4L367.66 67.53H403.22V58.67H384.24H384.23Z" fill="white"/>
<path d="M129.62 36.34C128.15 33.75 126.19 31.75 123.82 30.41C121.47 29.02 118.86 28.31 116.08 28.31C113.3 28.31 110.94 28.93 108.63 30.14C107.54 30.73 106.53 31.45 105.63 32.3V29.02H96.89V67.53H106.11V46.31C106.11 43.28 106.92 41.06 108.58 39.54C110.31 37.95 112.2 37.17 114.36 37.17C116.98 37.17 118.93 38.06 120.35 39.92C121.87 41.83 122.61 43.98 122.61 46.49V67.53H131.83V45.6C131.83 42 131.09 38.88 129.62 36.34Z" fill="white"/>
<path d="M144.45 25.39C148.045 25.39 150.96 22.4754 150.96 18.88C150.96 15.2846 148.045 12.37 144.45 12.37C140.855 12.37 137.94 15.2846 137.94 18.88C137.94 22.4754 140.855 25.39 144.45 25.39Z" fill="white"/>
<path d="M149.06 29.03H139.84V67.54H149.06V29.03Z" fill="white"/>
<path d="M213.6 36.28C212.17 33.76 210.19 31.78 207.72 30.4C205.3 29.01 202.58 28.31 199.65 28.31C196.99 28.31 194.42 28.9 192.01 30.06C190.2 30.95 188.62 32.19 187.3 33.75C186.13 32.3 184.71 31.11 183.08 30.22C180.85 28.95 178.38 28.31 175.72 28.31C173.29 28.31 170.94 28.86 168.75 29.94C167.68 30.45 166.7 31.1 165.81 31.87V29.03H157.07V67.54H166.29V45.61C166.29 43.55 166.68 41.9 167.44 40.71C168.22 39.49 169.16 38.62 170.31 38.06C171.54 37.48 172.81 37.18 174.06 37.18C175.31 37.18 176.55 37.49 177.78 38.16C178.98 38.76 179.92 39.66 180.67 40.92C181.44 42.16 181.83 43.79 181.83 45.78V67.53H191.05V45.6C191.05 43.57 191.42 41.93 192.14 40.76C192.92 39.54 193.86 38.67 195.01 38.11C196.24 37.53 197.52 37.23 198.82 37.23C200.89 37.23 202.66 37.94 204.26 39.44C205.83 40.84 206.59 42.92 206.59 45.78V67.53H215.81V45C215.81 41.66 215.06 38.72 213.6 36.27V36.28Z" fill="white"/>
<path d="M260.28 38.35C258.58 35.38 256.25 32.98 253.38 31.25C250.51 29.45 247.25 28.54 243.71 28.54C241.2 28.54 238.8 29 236.58 29.89C235.32 30.4 234.13 31.03 233.02 31.77V7.59H223.8V67.53H232.54V64.41C233.69 65.23 234.93 65.93 236.25 66.53C238.56 67.51 241.06 68.01 243.7 68.01C247.24 68.01 250.49 67.12 253.36 65.36C256.25 63.58 258.57 61.17 260.26 58.21C262.01 55.23 262.89 51.89 262.89 48.28C262.89 44.67 262 41.33 260.27 38.36L260.28 38.35ZM253.69 47.8C253.69 49.84 253.19 51.73 252.21 53.42C251.26 55.07 249.94 56.43 248.29 57.45C246.7 58.42 244.88 58.91 242.88 58.91C240.88 58.91 239.04 58.42 237.43 57.46C235.8 56.43 234.47 55.07 233.5 53.43C232.55 51.74 232.07 49.85 232.07 47.8C232.07 45.75 232.55 43.89 233.49 42.25C234.48 40.56 235.8 39.2 237.42 38.21C239.08 37.19 240.86 36.69 242.88 36.69C244.9 36.69 246.65 37.18 248.3 38.22C249.97 39.21 251.24 40.52 252.22 42.26C253.21 43.92 253.69 45.73 253.69 47.8Z" fill="white"/>
<path d="M277.58 7.6H268.36V67.54H277.58V7.6Z" fill="white"/>
<path d="M297.36 50.75H322.09V46.74C322.09 43.12 321.2 39.83 319.44 36.96C317.7 34.11 315.32 31.82 312.4 30.17C309.46 28.46 306.18 27.6 302.65 27.6C299.12 27.6 295.76 28.49 292.77 30.24C289.84 31.98 287.47 34.37 285.74 37.33C283.99 40.27 283.1 43.6 283.1 47.21C283.1 50.82 284 54.45 285.8 57.57C287.62 60.62 290.14 63.07 293.28 64.86C296.45 66.64 300.07 67.54 304.02 67.54C306.62 67.54 309.12 67.13 311.45 66.33C313.81 65.49 315.93 64.31 317.75 62.82L318.43 62.26L315.7 51.08L313.93 53.61C312.87 55.12 311.46 56.36 309.72 57.28C307.99 58.2 306.09 58.66 304.06 58.66C301.01 58.66 298.44 57.72 296.23 55.8C294.53 54.3 293.39 52.55 292.79 50.5C293.22 50.54 293.64 50.58 294.07 50.62C295.17 50.7 296.26 50.74 297.33 50.74L297.36 50.75ZM311.9 42.72C311.02 42.64 310.12 42.6 309.21 42.6H297.36C295.86 42.6 294.35 42.68 292.86 42.85C293.53 41.28 294.55 39.9 295.96 38.67C297.9 36.95 300.08 36.11 302.65 36.11C305.22 36.11 307.34 36.9 309.34 38.54C310.81 39.72 311.85 41.11 312.49 42.76C312.29 42.75 312.09 42.74 311.89 42.73L311.9 42.72Z" fill="white"/>
<path d="M448.96 42.56C448.1 40.22 446.88 38.17 445.31 36.4C443.74 34.59 441.88 33.18 439.73 32.18C437.63 31.18 435.32 30.68 432.79 30.68C429.97 30.68 427.47 31.32 425.27 32.61C423.07 33.85 421.26 35.57 419.83 37.76V31.32H411.45V84.07H421.04V62.24C422.28 64.48 424 66.27 426.19 67.61C428.43 68.9 431.01 69.54 433.92 69.54C437.12 69.54 439.93 68.68 442.37 66.96C444.85 65.19 446.78 62.83 448.17 59.87C449.6 56.91 450.32 53.62 450.32 49.99C450.32 47.32 449.87 44.84 448.96 42.55V42.56ZM439.8 54.3C439.37 55.64 438.7 56.85 437.79 57.95C436.93 59 435.91 59.83 434.71 60.46C433.52 61.08 432.18 61.39 430.7 61.39C429.36 61.39 428.05 61.08 426.76 60.46C425.47 59.79 424.33 58.89 423.32 57.74C422.37 56.59 421.6 55.33 421.03 53.95V45.15C421.32 44.24 421.77 43.41 422.39 42.64C423.06 41.88 423.82 41.21 424.68 40.64C425.54 40.07 426.42 39.64 427.33 39.35C428.28 39.02 429.22 38.85 430.12 38.85C431.6 38.85 432.96 39.14 434.2 39.71C435.49 40.28 436.61 41.09 437.56 42.14C438.51 43.14 439.23 44.31 439.71 45.65C440.24 46.99 440.5 48.44 440.5 50.02C440.5 51.5 440.26 52.93 439.78 54.31L439.8 54.3Z" fill="white"/>
</svg>
